<?xml version="1.0" encoding="UTF-8" standalone="no"?>
<svg width="71px" height="52px" viewBox="0 0 71 52" version="1.1" xmlns="http://www.w3.org/2000/svg" xmlns:xlink="http://www.w3.org/1999/xlink" xmlns:sketch="http://www.bohemiancoding.com/sketch/ns">
    <title>Slice 1</title>
    <description>Created with Sketch (http://www.bohemiancoding.com/sketch)</description>
    <defs></defs>
    <g id="Page-1" stroke="none" stroke-width="1" fill="none" fill-rule="evenodd" sketch:type="MSPage">
        <path d="M35.3767458,52 C19.1499574,52 4.98218948,42.035621 0.160027499,27.2064061 C-0.0533424997,26.5983016 -0.0533424997,25.9155176 0.160027499,25.3074131 C4.98218948,10.4888667 19.1499574,0.53515625 35.3767458,0.53515625 C51.5928657,0.53515625 65.7606337,10.4888667 70.6148012,25.3074131 C70.7961657,25.9155176 70.7961657,26.5983016 70.6148012,27.2064061 C65.7606337,42.035621 51.5928657,52 35.3767458,52 M6.33708897,26.2462411 C10.6044889,38.0135966 22.1584744,45.854944 35.3767458,45.854944 C48.5843488,45.854944 60.1383342,38.0135966 64.4377397,26.2462411 C60.1383342,14.4788857 48.5843488,6.66954372 35.3767458,6.66954372 C22.1584744,6.66954372 10.6044889,14.4788857 6.33708897,26.2462411" id="Fill-1" fill="#F2EEE8" sketch:type="MSShapeGroup"></path>
        <path d="M35.3660773,42.8997695 C26.1911674,42.8997695 18.7125489,35.4318196 18.7125489,26.2462411 C18.7125489,24.5712866 20.1101224,23.1843816 21.7850769,23.1843816 C23.5133739,23.1843816 24.8682734,24.5712866 24.8682734,26.2462411 C24.8682734,32.0605736 29.5944189,36.7547136 35.3660773,36.7547136 C41.1697413,36.7547136 45.8852183,32.0605736 45.8852183,26.2462411 C45.8852183,20.4745827 41.1697413,15.7697742 35.3660773,15.7697742 C33.6804543,15.7697742 32.2935493,14.3935377 32.2935493,12.6972462 C32.2935493,10.9902862 33.6804543,9.63538671 35.3660773,9.63538671 C44.5623243,9.63538671 52.0302742,17.1033367 52.0302742,26.2462411 C52.0302742,35.4318196 44.5623243,42.8997695 35.3660773,42.8997695" id="Fill-4" fill="#F2EEE8" sketch:type="MSShapeGroup"></path>
    </g>
</svg>