<?xml version="1.0" encoding="utf-8"?>
<!-- Generator: Adobe Illustrator 27.6.1, SVG Export Plug-In . SVG Version: 6.00 Build 0)  -->
<svg version="1.1" id="Livello_1" xmlns="http://www.w3.org/2000/svg" xmlns:xlink="http://www.w3.org/1999/xlink" x="0px" y="0px" viewBox="0 0 703.99 703.99" style="enable-background:new 0 0 703.99 703.99;" xml:space="preserve">
<style type="text/css"> .st0{fill:#FFFFFF;}
</style>
<circle cx="351.99" cy="351.99" r="300.5"/>
<g> <g> <path class="st0" d="M107.45,199.45h53.86l103.42,239.16h0.86l104.28-239.16h52.57v305.09h-36.2V248.58h-0.86L275.94,504.54 h-21.98L144.51,248.58h-0.86v255.96h-36.2V199.45z"/> </g> <g> <path class="st0" d="M386.68,199.45h93.08c12.64,0,24.99,1.29,37.06,3.88c12.07,2.59,22.84,6.83,32.32,12.71 c9.48,5.89,17.16,13.57,23.05,23.05c5.88,9.48,8.83,21.26,8.83,35.34c0,17.82-4.81,32.53-14.44,44.17 c-9.63,11.63-22.62,19.9-39,24.78v0.86c9.76,0.86,18.89,3.38,27.36,7.54c8.47,4.17,15.79,9.55,21.98,16.16 c6.17,6.61,10.99,14.29,14.44,23.05c3.45,8.77,5.17,18.17,5.17,28.23c0,16.95-3.52,30.88-10.56,41.8 c-7.04,10.92-16.23,19.61-27.58,26.07c-11.35,6.46-24.13,10.99-38.35,13.57c-14.22,2.59-28.37,3.88-42.44,3.88h-90.92V199.45z M422.88,328.72h49.99c8.62,0,17.02-0.57,25.21-1.72c8.19-1.14,15.58-3.51,22.19-7.11c6.61-3.59,11.92-8.62,15.94-15.08 c4.02-6.46,6.03-15.01,6.03-25.64c0-9.48-1.87-17.16-5.6-23.05c-3.74-5.88-8.69-10.56-14.87-14.01 c-6.18-3.45-13.22-5.82-21.11-7.11c-7.91-1.29-15.88-1.94-23.92-1.94h-53.86V328.72z M422.88,470.93h61.19 c8.9,0,17.74-0.93,26.5-2.8c8.76-1.86,16.66-4.88,23.7-9.05c7.04-4.16,12.71-9.62,17.02-16.38c4.31-6.75,6.46-15.01,6.46-24.78 c-8.77-1.72-17.74-2.59-26.93-2.59h-62.05V470.93z"/> </g>
</g>
</svg>
