<svg xmlns="http://www.w3.org/2000/svg" xmlns:xlink="http://www.w3.org/1999/xlink" xmlns:sketch="http://www.bohemiancoding.com/sketch/ns"><symbol id="email" viewBox="0 0 26 20">
<path id="Vector" d="M24.2273 0H1.77273C0.768182 0 0 0.764706 0 1.76471V18.2353C0 19.2353 0.768182 20 1.77273 20H24.2273C25.2318 20 26 19.2353 26 18.2353V1.76471C26 0.764706 25.2318 0 24.2273 0ZM24.2273 17L19.5591 12.3529C19.2045 12 18.6727 12 18.3182 12.3529C17.9636 12.7059 17.9636 13.2353 18.3182 13.5882L22.9864 18.2353H3.01362L7.68182 13.5882C8.03636 13.2353 8.03636 12.7059 7.68182 12.3529C7.32727 12 6.79547 12 6.44092 12.3529L1.77273 17V5.70585L12.4091 13.7059C12.5864 13.8236 12.7636 13.8823 12.9409 13.8823C13.1182 13.8823 13.2954 13.8236 13.4727 13.7059L24.2273 5.70585V17ZM24.2273 1.76471V3.4706L12.9409 11.8235L1.77273 3.4706V1.76471H24.2273Z"/>
</symbol><symbol id="insta" viewBox="0 0 256 256"><path stroke-miterlimit="10" d="M16.5 5C10.166 5 5 10.166 5 16.5v15C5 37.833 10.166 43 16.5 43h15C37.833 43 43 37.833 43 31.5v-15C43 10.166 37.833 5 31.5 5zm0 3h15c4.711 0 8.5 3.788 8.5 8.5v15c0 4.711-3.789 8.5-8.5 8.5h-15A8.478 8.478 0 0 1 8 31.5v-15C8 11.788 11.788 8 16.5 8zM34 12a2 2 0 1 0-.001 3.999A2 2 0 0 0 34 12zm-10 2c-5.505 0-10 4.495-10 10s4.495 10 10 10 10-4.495 10-10-4.495-10-10-10zm0 3c3.883 0 7 3.117 7 7s-3.117 7-7 7-7-3.117-7-7 3.117-7 7-7z" font-family="none" font-size="none" font-weight="none" style="mix-blend-mode:normal" text-anchor="none" transform="matrix(6.45333 0 0 6.45333 -26.88 -26.88)"/></symbol><symbol id="phone" viewBox="0 0 22 24"><g fill="none">
<g id="icon/small/phone">
<path id="icon" d="M3.45616 6.74199C3.37161 5.54391 3.63734 4.36374 4.34096 3.41452C4.95096 2.554 5.74517 2.08404 6.70245 1.8094C7.50874 1.57018 8.03721 1.86329 8.26974 2.75972C8.60192 4.09991 9.07604 5.44018 9.24817 6.85129C9.30253 7.47252 8.90089 8.35089 8.46604 8.80328C7.37589 9.87655 7.60238 10.6576 8.42982 12.282C8.6865 12.8057 9.09418 13.7111 9.88839 14.9096C10.7158 16.1169 11.1537 16.7649 12.2167 16.2152C13.3974 15.6212 14.2581 16.0032 15.1489 16.9621C15.7529 17.6546 16.4172 18.2495 17.0212 18.942C17.8939 19.9718 17.8547 20.6818 17.1722 21.4091C15.9431 22.7486 13.9138 23.1913 12.4039 22.2943C11.5705 21.8058 10.74 21.1664 10.0787 20.4206C7.16453 17.1002 5.06272 13.2388 3.79741 8.88089C3.59508 8.14421 3.50146 7.39872 3.45616 6.74199Z" stroke-width="2" stroke-miterlimit="10"/>
</g>
</g></symbol><symbol id="view" viewBox="0 0 71 52">
    <title>Slice 1</title>
    <description>Created with Sketch (http://www.bohemiancoding.com/sketch)</description>
    
    <g id="Page-1" stroke="none" stroke-width="1" fill="none" fill-rule="evenodd" sketch:type="MSPage">
        <path d="M35.3767458,52 C19.1499574,52 4.98218948,42.035621 0.160027499,27.2064061 C-0.0533424997,26.5983016 -0.0533424997,25.9155176 0.160027499,25.3074131 C4.98218948,10.4888667 19.1499574,0.53515625 35.3767458,0.53515625 C51.5928657,0.53515625 65.7606337,10.4888667 70.6148012,25.3074131 C70.7961657,25.9155176 70.7961657,26.5983016 70.6148012,27.2064061 C65.7606337,42.035621 51.5928657,52 35.3767458,52 M6.33708897,26.2462411 C10.6044889,38.0135966 22.1584744,45.854944 35.3767458,45.854944 C48.5843488,45.854944 60.1383342,38.0135966 64.4377397,26.2462411 C60.1383342,14.4788857 48.5843488,6.66954372 35.3767458,6.66954372 C22.1584744,6.66954372 10.6044889,14.4788857 6.33708897,26.2462411" id="Fill-1" fill="#F2EEE8" sketch:type="MSShapeGroup"/>
        <path d="M35.3660773,42.8997695 C26.1911674,42.8997695 18.7125489,35.4318196 18.7125489,26.2462411 C18.7125489,24.5712866 20.1101224,23.1843816 21.7850769,23.1843816 C23.5133739,23.1843816 24.8682734,24.5712866 24.8682734,26.2462411 C24.8682734,32.0605736 29.5944189,36.7547136 35.3660773,36.7547136 C41.1697413,36.7547136 45.8852183,32.0605736 45.8852183,26.2462411 C45.8852183,20.4745827 41.1697413,15.7697742 35.3660773,15.7697742 C33.6804543,15.7697742 32.2935493,14.3935377 32.2935493,12.6972462 C32.2935493,10.9902862 33.6804543,9.63538671 35.3660773,9.63538671 C44.5623243,9.63538671 52.0302742,17.1033367 52.0302742,26.2462411 C52.0302742,35.4318196 44.5623243,42.8997695 35.3660773,42.8997695" id="Fill-4" fill="#F2EEE8" sketch:type="MSShapeGroup"/>
    </g>
</symbol></svg>